{
  "accessors": [
    {
      "name": "12140_Skull_v3_jaw_1_0_positions",
      "componentType": 5126,
      "count": 6434,
      "min": [
        -7.716599941253662,
        -15.249300003051758,
        0.050200000405311584
      ],
      "max": [
        7.719299793243408,
        -1.4586999416351318,
        11.022299766540527
      ],
      "type": "VEC3",
      "bufferView": 0,
      "byteOffset": 0
    },
    {
      "name": "12140_Skull_v3_jaw_1_0_normals",
      "componentType": 5126,
      "count": 6434,
      "min": [
        -0.9999401569366455,
        -0.999964714050293,
        -0.9997202754020691
      ],
      "max": [
        0.9999297261238098,
        0.9996894598007202,
        0.9997739791870117
      ],
      "type": "VEC3",
      "bufferView": 1,
      "byteOffset": 0
    },
    {
      "name": "12140_Skull_v3_jaw_1_0_texcoords",
      "componentType": 5126,
      "count": 6434,
      "min": [
        0.008799999952316284,
        0.03720000013709068
      ],
      "max": [
        0.4959999918937683,
        0.31940001249313354
      ],
      "type": "VEC2",
      "bufferView": 2,
      "byteOffset": 0
    },
    {
      "name": "12140_Skull_v3_jaw_1_0_indices",
      "componentType": 5123,
      "count": 36672,
      "min": [
        0
      ],
      "max": [
        6433
      ],
      "type": "SCALAR",
      "bufferView": 3,
      "byteOffset": 0
    },
    {
      "name": "12140_Skull_v3_teeth_1_0_positions",
      "componentType": 5126,
      "count": 6096,
      "min": [
        -4.74459981918335,
        -15.487700462341309,
        5.610199928283691
      ],
      "max": [
        4.750500202178955,
        -7.915800094604492,
        7.824900150299072
      ],
      "type": "VEC3",
      "bufferView": 0,
      "byteOffset": 77208
    },
    {
      "name": "12140_Skull_v3_teeth_1_0_normals",
      "componentType": 5126,
      "count": 6096,
      "min": [
        -0.9999762773513794,
        -0.999927282333374,
        -0.999656081199646
      ],
      "max": [
        0.9999762773513794,
        0.9996137619018555,
        0.9995154738426208
      ],
      "type": "VEC3",
      "bufferView": 1,
      "byteOffset": 77208
    },
    {
      "name": "12140_Skull_v3_teeth_1_0_texcoords",
      "componentType": 5126,
      "count": 6096,
      "min": [
        0.5001999735832214,
        0.00800000037997961
      ],
      "max": [
        0.9871000051498413,
        0.3986000120639801
      ],
      "type": "VEC2",
      "bufferView": 2,
      "byteOffset": 51472
    },
    {
      "name": "12140_Skull_v3_teeth_1_0_indices",
      "componentType": 5123,
      "count": 31716,
      "min": [
        0
      ],
      "max": [
        6095
      ],
      "type": "SCALAR",
      "bufferView": 3,
      "byteOffset": 73344
    },
    {
      "name": "12140_Skull_v3_teeth_lower_1_0_positions",
      "componentType": 5126,
      "count": 5077,
      "min": [
        -4.439499855041504,
        -15.178299903869629,
        3.964400053024292
      ],
      "max": [
        4.439499855041504,
        -8.035900115966797,
        6.317699909210205
      ],
      "type": "VEC3",
      "bufferView": 0,
      "byteOffset": 150360
    },
    {
      "name": "12140_Skull_v3_teeth_lower_1_0_normals",
      "componentType": 5126,
      "count": 5077,
      "min": [
        -0.9999757409095764,
        -0.9991954565048218,
        -0.999978244304657
      ],
      "max": [
        0.9999757409095764,
        0.9986908435821533,
        0.9998303651809692
      ],
      "type": "VEC3",
      "bufferView": 1,
      "byteOffset": 150360
    },
    {
      "name": "12140_Skull_v3_teeth_lower_1_0_texcoords",
      "componentType": 5126,
      "count": 5077,
      "min": [
        0.5001999735832214,
        0.009600000455975533
      ],
      "max": [
        0.98580002784729,
        0.3986000120639801
      ],
      "type": "VEC2",
      "bufferView": 2,
      "byteOffset": 100240
    },
    {
      "name": "12140_Skull_v3_teeth_lower_1_0_indices",
      "componentType": 5123,
      "count": 26028,
      "min": [
        0
      ],
      "max": [
        5076
      ],
      "type": "SCALAR",
      "bufferView": 3,
      "byteOffset": 136776
    },
    {
      "name": "12140_Skull_v3_1_0_positions",
      "componentType": 5126,
      "count": 25075,
      "min": [
        -9.92039966583252,
        -15.306300163269043,
        6.508299827575684
      ],
      "max": [
        9.919899940490723,
        13.964300155639648,
        27.575899124145508
      ],
      "type": "VEC3",
      "bufferView": 0,
      "byteOffset": 211284
    },
    {
      "name": "12140_Skull_v3_1_0_normals",
      "componentType": 5126,
      "count": 25075,
      "min": [
        -0.9999940395355225,
        -0.9999982118606567,
        -0.9999979734420776
      ],
      "max": [
        0.9999991059303284,
        0.9999884366989136,
        0.9998874664306641
      ],
      "type": "VEC3",
      "bufferView": 1,
      "byteOffset": 211284
    },
    {
      "name": "12140_Skull_v3_1_0_texcoords",
      "componentType": 5126,
      "count": 25075,
      "min": [
        0.01769999973475933,
        0.3165999948978424
      ],
      "max": [
        0.9822999835014343,
        0.9822999835014343
      ],
      "type": "VEC2",
      "bufferView": 2,
      "byteOffset": 140856
    },
    {
      "name": "12140_Skull_v3_1_0_indices",
      "componentType": 5123,
      "count": 145632,
      "min": [
        0
      ],
      "max": [
        25074
      ],
      "type": "SCALAR",
      "bufferView": 3,
      "byteOffset": 188832
    }
  ],
  "asset": {
    "generator": "obj2gltf",
    "version": "2.0"
  },
  "buffers": [
    {
      "name": "12140_Skull_v3_L2",
      "byteLength": 2006816,
      "uri": "data:application/octet-stream;base64,"
    }
  ],
  "bufferViews": [
    {
      "name": "bufferView_0",
      "buffer": 0,
      "byteLength": 512184,
      "byteOffset": 0,
      "byteStride": 12,
      "target": 34962
    },
    {
      "name": "bufferView_1",
      "buffer": 0,
      "byteLength": 512184,
      "byteOffset": 512184,
      "byteStride": 12,
      "target": 34962
    },
    {
      "name": "bufferView_2",
      "buffer": 0,
      "byteLength": 341456,
      "byteOffset": 1024368,
      "byteStride": 8,
      "target": 34962
    },
    {
      "name": "bufferView_3",
      "buffer": 0,
      "byteLength": 480096,
      "byteOffset": 1365824,
      "target": 34963
    },
    {
      "buffer": 0,
      "byteOffset": 1845920,
      "byteLength": 160896
    }
  ],
  "images": [
    {
      "name": "Skull",
      "mimeType": "image/jpeg",
      "bufferView": 4
    }
  ],
  "materials": [
    {
      "name": "12140_Skull_v3",
      "pbrMetallicRoughness": {
        "baseColorTexture": {
          "index": 0
        },
        "baseColorFactor": [
          1,
          1,
          1,
          1
        ],
        "metallicFactor": 0,
        "roughnessFactor": 0.976
      },
      "emissiveFactor": [
        0,
        0,
        0
      ],
      "alphaMode": "OPAQUE",
      "doubleSided": false
    }
  ],
  "meshes": [
    {
      "name": "12140_Skull_v3_jaw_1",
      "primitives": [
        {
          "attributes": {
            "POSITION": 0,
            "NORMAL": 1,
            "TEXCOORD_0": 2
          },
          "indices": 3,
          "material": 0,
          "mode": 4
        }
      ]
    },
    {
      "name": "12140_Skull_v3_teeth_1",
      "primitives": [
        {
          "attributes": {
            "POSITION": 4,
            "NORMAL": 5,
            "TEXCOORD_0": 6
          },
          "indices": 7,
          "material": 0,
          "mode": 4
        }
      ]
    },
    {
      "name": "12140_Skull_v3_teeth_lower_1",
      "primitives": [
        {
          "attributes": {
            "POSITION": 8,
            "NORMAL": 9,
            "TEXCOORD_0": 10
          },
          "indices": 11,
          "material": 0,
          "mode": 4
        }
      ]
    },
    {
      "name": "12140_Skull_v3_1",
      "primitives": [
        {
          "attributes": {
            "POSITION": 12,
            "NORMAL": 13,
            "TEXCOORD_0": 14
          },
          "indices": 15,
          "material": 0,
          "mode": 4
        }
      ]
    }
  ],
  "nodes": [
    {
      "name": "12140_Skull_v3_jaw",
      "mesh": 0
    },
    {
      "name": "12140_Skull_v3_teeth",
      "mesh": 1
    },
    {
      "name": "12140_Skull_v3_teeth_lower",
      "mesh": 2
    },
    {
      "name": "12140_Skull_v3",
      "mesh": 3
    }
  ],
  "samplers": [
    {
      "magFilter": 9729,
      "minFilter": 9986,
      "wrapS": 10497,
      "wrapT": 10497
    }
  ],
  "scene": 0,
  "scenes": [
    {
      "nodes": [
        0,
        1,
        2,
        3
      ]
    }
  ],
  "textures": [
    {
      "name": "Skull",
      "sampler": 0,
      "source": 0
    }
  ]
}
